{"accessors":[{"bufferView":0,"byteOffset":0,"componentType":5126,"count":74,"max":[0.0225,0.17500000000000003,0.0225],"min":[-0.0225,0.0,-0.0225],"type":"VEC3"},{"bufferView":0,"byteOffset":888,"componentType":5126,"count":72,"max":[0.0225,4.884981308350688e-18,0.0225],"min":[-0.0225,-4.884981308350688e-18,-0.0225],"type":"VEC3"},{"bufferView":0,"byteOffset":1752,"componentType":5126,"count":36,"max":[0.0225,0.17500000000000003,0.0225],"min":[-0.0225,0.17500000000000003,-0.0225],"type":"VEC3"},{"bufferView":0,"byteOffset":2184,"componentType":5126,"count":295,"max":[0.021999999999999996,0.005000190962975487,0.021999999999999996],"min":[-0.021999999999999996,-4.884981308350688e-18,-0.021999999999999996],"type":"VEC3"},{"bufferView":0,"byteOffset":5724,"componentType":5126,"count":201,"max":[0.0225,0.18,0.0225],"min":[-0.0225,0.17500000000000003,-0.0225],"type":"VEC3"},{"bufferView":0,"byteOffset":8136,"componentType":5126,"count":60,"max":[0.0225,0.17500000000000003,0.0225],"min":[-0.0225,0.17500000000000003,-0.0225],"type":"VEC3"},{"bufferView":0,"byteOffset":8856,"componentType":5126,"count":53,"max":[0.0175,0.18,0.017492314638903905],"min":[-0.017469265305875629,0.18,-0.017492314638903905],"type":"VEC3"},{"bufferView":0,"byteOffset":9492,"componentType":5126,"count":184,"max":[0.0175,0.21,0.0],"min":[-1e-18,0.18,-0.0175],"type":"VEC3"},{"bufferView":0,"byteOffset":11700,"componentType":5126,"count":182,"max":[1e-18,0.21,3e-18],"min":[-0.0175,0.18,-0.0175],"type":"VEC3"},{"bufferView":0,"byteOffset":13884,"componentType":5126,"count":182,"max":[-3e-18,0.21,0.0175],"min":[-0.0175,0.18,-2e-18],"type":"VEC3"},{"bufferView":0,"byteOffset":16068,"componentType":5126,"count":184,"max":[0.0175,0.21,0.0175],"min":[-6e-18,0.18,-1e-18],"type":"VEC3"},{"bufferView":0,"byteOffset":18276,"componentType":5126,"count":52,"max":[0.0175,0.18,0.0175],"min":[-0.0175,0.18,-0.0175],"type":"VEC3"},{"bufferView":0,"byteOffset":18900,"componentType":5126,"count":36,"max":[0.015999999999999998,0.21,0.016000000000000005],"min":[-0.016,0.21,-0.016],"type":"VEC3"},{"bufferView":1,"byteOffset":0,"componentType":5126,"count":74,"type":"VEC3"},{"bufferView":1,"byteOffset":888,"componentType":5126,"count":72,"type":"VEC3"},{"bufferView":1,"byteOffset":1752,"componentType":5126,"count":36,"type":"VEC3"},{"bufferView":1,"byteOffset":2184,"componentType":5126,"count":295,"type":"VEC3"},{"bufferView":1,"byteOffset":5724,"componentType":5126,"count":201,"type":"VEC3"},{"bufferView":1,"byteOffset":8136,"componentType":5126,"count":60,"type":"VEC3"},{"bufferView":1,"byteOffset":8856,"componentType":5126,"count":53,"type":"VEC3"},{"bufferView":1,"byteOffset":9492,"componentType":5126,"count":184,"type":"VEC3"},{"bufferView":1,"byteOffset":11700,"componentType":5126,"count":182,"type":"VEC3"},{"bufferView":1,"byteOffset":13884,"componentType":5126,"count":182,"type":"VEC3"},{"bufferView":1,"byteOffset":16068,"componentType":5126,"count":184,"type":"VEC3"},{"bufferView":1,"byteOffset":18276,"componentType":5126,"count":52,"type":"VEC3"},{"bufferView":1,"byteOffset":18900,"componentType":5126,"count":36,"type":"VEC3"},{"bufferView":2,"byteOffset":0,"componentType":5123,"count":216,"type":"SCALAR"},{"bufferView":2,"byteOffset":432,"componentType":5123,"count":216,"type":"SCALAR"},{"bufferView":2,"byteOffset":864,"componentType":5123,"count":102,"type":"SCALAR"},{"bufferView":2,"byteOffset":1068,"componentType":5123,"count":1629,"type":"SCALAR"},{"bufferView":2,"byteOffset":4328,"componentType":5123,"count":843,"type":"SCALAR"},{"bufferView":2,"byteOffset":6016,"componentType":5123,"count":174,"type":"SCALAR"},{"bufferView":2,"byteOffset":6364,"componentType":5123,"count":153,"type":"SCALAR"},{"bufferView":2,"byteOffset":6672,"componentType":5123,"count":1026,"type":"SCALAR"},{"bufferView":2,"byteOffset":8724,"componentType":5123,"count":1014,"type":"SCALAR"},{"bufferView":2,"byteOffset":10752,"componentType":5123,"count":1014,"type":"SCALAR"},{"bufferView":2,"byteOffset":12780,"componentType":5123,"count":1026,"type":"SCALAR"},{"bufferView":2,"byteOffset":14832,"componentType":5123,"count":150,"type":"SCALAR"},{"bufferView":2,"byteOffset":15132,"componentType":5123,"count":102,"type":"SCALAR"}],"asset":{"generator":"Open CASCADE Technology 7.6 [dev.opencascade.org]","version":"2.0"},"bufferViews":[{"buffer":0,"byteLength":19332,"byteOffset":0,"byteStride":12,"target":34962},{"buffer":0,"byteLength":19332,"byteOffset":19332,"byteStride":12,"target":34962},{"buffer":0,"byteLength":15336,"byteOffset":38664,"target":34963}],"buffers":[{"byteLength":54000,"uri":"deodorant.bin"}],"materials":[{"name":"mat_0","pbrMetallicRoughness":{"baseColorFactor":[0.6038273572921753,0.6038273572921753,0.6038273572921753,1.0]},"doubleSided":true},{"name":"mat_1","pbrMetallicRoughness":{"baseColorFactor":[0.6038273572921753,0.6038273572921753,0.6038273572921753,1.0]},"doubleSided":true}],"meshes":[{"name":"Body","primitives":[{"attributes":{"NORMAL":13,"POSITION":0},"indices":26,"material":0,"mode":4},{"attributes":{"NORMAL":14,"POSITION":1},"indices":27,"material":0,"mode":4},{"attributes":{"NORMAL":15,"POSITION":2},"indices":28,"material":0,"mode":4},{"attributes":{"NORMAL":16,"POSITION":3},"indices":29,"material":0,"mode":4}]},{"name":"Extrude","primitives":[{"attributes":{"NORMAL":17,"POSITION":4},"indices":30,"material":1,"mode":4},{"attributes":{"NORMAL":18,"POSITION":5},"indices":31,"material":1,"mode":4},{"attributes":{"NORMAL":19,"POSITION":6},"indices":32,"material":1,"mode":4}]},{"name":"Loft","primitives":[{"attributes":{"NORMAL":20,"POSITION":7},"indices":33,"material":0,"mode":4},{"attributes":{"NORMAL":21,"POSITION":8},"indices":34,"material":0,"mode":4},{"attributes":{"NORMAL":22,"POSITION":9},"indices":35,"material":0,"mode":4},{"attributes":{"NORMAL":23,"POSITION":10},"indices":36,"material":0,"mode":4},{"attributes":{"NORMAL":24,"POSITION":11},"indices":37,"material":0,"mode":4},{"attributes":{"NORMAL":25,"POSITION":12},"indices":38,"material":0,"mode":4}]}],"nodes":[{"children":[1,4,5,6,7],"name":"deodorant"},{"children":[2,3],"name":"Part"},{"name":"Cylinder"},{"mesh":0,"name":"Body"},{"mesh":1,"name":"Extrude"},{"translation":[0.0,0.21,0.0],"name":"Sketch001"},{"translation":[0.0,0.18,0.0],"name":"Sketch002"},{"mesh":2,"name":"Loft"}],"scene":0,"scenes":[{"nodes":[0]}]}